<svg width="304" height="388" viewBox="0 0 304 388" fill="none" xmlns="http://www.w3.org/2000/svg">
<g filter="url(#filter0_d_41_617)">
<rect x="30" y="52" width="174" height="236" fill="#FEFEFF"/>
</g>
<g filter="url(#filter1_d_41_617)">
<path fill-rule="evenodd" clip-rule="evenodd" d="M111.227 38.6665H122.787C127.307 38.6665 130.333 41.8398 130.333 46.5598V57.4545C130.333 62.1598 127.307 65.3332 122.787 65.3332H111.227C106.707 65.3332 103.667 62.1598 103.667 57.4545V46.5598C103.667 41.8398 106.707 38.6665 111.227 38.6665ZM116.24 55.9865L122.573 49.6532C123.027 49.1998 123.027 48.4665 122.573 47.9998C122.12 47.5465 121.373 47.5465 120.92 47.9998L115.413 53.5065L113.08 51.1732C112.627 50.7198 111.88 50.7198 111.427 51.1732C110.973 51.6265 110.973 52.3598 111.427 52.8265L114.6 55.9865C114.827 56.2132 115.12 56.3198 115.413 56.3198C115.72 56.3198 116.013 56.2132 116.24 55.9865Z" fill="#69B99D"/>
</g>
<path d="M65.88 137.408V132.44L91.152 97.448H99V131.72H106.2V137.408H99V149H92.52V137.408H65.88ZM92.808 104.288L73.44 131.72H92.808V104.288ZM116.093 149.432C114.845 149.432 113.789 149 112.925 148.136C112.061 147.272 111.629 146.216 111.629 144.968C111.629 143.72 112.061 142.664 112.925 141.8C113.789 140.936 114.845 140.504 116.093 140.504C117.293 140.504 118.301 140.936 119.117 141.8C119.981 142.664 120.413 143.72 120.413 144.968C120.413 146.216 119.981 147.272 119.117 148.136C118.301 149 117.293 149.432 116.093 149.432ZM137.726 121.928C135.038 120.872 132.974 119.336 131.534 117.32C130.094 115.304 129.374 112.856 129.374 109.976C129.374 107.384 130.022 105.056 131.318 102.992C132.614 100.88 134.534 99.224 137.078 98.024C139.67 96.776 142.79 96.152 146.438 96.152C150.086 96.152 153.182 96.776 155.726 98.024C158.318 99.224 160.262 100.88 161.558 102.992C162.902 105.056 163.574 107.384 163.574 109.976C163.574 112.76 162.83 115.208 161.342 117.32C159.854 119.384 157.814 120.92 155.222 121.928C158.198 122.84 160.55 124.448 162.278 126.752C164.054 129.008 164.942 131.744 164.942 134.96C164.942 138.08 164.174 140.816 162.638 143.168C161.102 145.472 158.918 147.272 156.086 148.568C153.302 149.816 150.086 150.44 146.438 150.44C142.79 150.44 139.574 149.816 136.79 148.568C134.054 147.272 131.918 145.472 130.382 143.168C128.846 140.816 128.078 138.08 128.078 134.96C128.078 131.744 128.942 128.984 130.67 126.68C132.398 124.376 134.75 122.792 137.726 121.928ZM157.238 110.768C157.238 107.84 156.278 105.584 154.358 104C152.438 102.416 149.798 101.624 146.438 101.624C143.126 101.624 140.51 102.416 138.59 104C136.67 105.584 135.71 107.864 135.71 110.84C135.71 113.528 136.694 115.688 138.662 117.32C140.678 118.952 143.27 119.768 146.438 119.768C149.654 119.768 152.246 118.952 154.214 117.32C156.23 115.64 157.238 113.456 157.238 110.768ZM146.438 124.808C142.886 124.808 139.982 125.648 137.726 127.328C135.47 128.96 134.342 131.432 134.342 134.744C134.342 137.816 135.422 140.288 137.582 142.16C139.79 144.032 142.742 144.968 146.438 144.968C150.134 144.968 153.062 144.032 155.222 142.16C157.382 140.288 158.462 137.816 158.462 134.744C158.462 131.528 157.358 129.08 155.15 127.4C152.942 125.672 150.038 124.808 146.438 124.808Z" fill="#054457"/>
<path d="M82.096 212.848V214.032H79.056V224H77.6V214.032H74.544V212.848H82.096ZM85.3843 216.656C85.6403 216.155 86.0029 215.765 86.4723 215.488C86.9523 215.211 87.5336 215.072 88.2163 215.072V216.576H87.8323C86.2003 216.576 85.3843 217.461 85.3843 219.232V224H83.9283V215.232H85.3843V216.656ZM97.713 215.232V224H96.257V222.704C95.9797 223.152 95.5903 223.504 95.089 223.76C94.5983 224.005 94.0543 224.128 93.457 224.128C92.7743 224.128 92.161 223.989 91.617 223.712C91.073 223.424 90.641 222.997 90.321 222.432C90.0117 221.867 89.857 221.179 89.857 220.368V215.232H91.297V220.176C91.297 221.04 91.5157 221.707 91.953 222.176C92.3903 222.635 92.9877 222.864 93.745 222.864C94.5237 222.864 95.137 222.624 95.585 222.144C96.033 221.664 96.257 220.965 96.257 220.048V215.232H97.713ZM103.315 224.144C102.643 224.144 102.041 224.032 101.507 223.808C100.974 223.573 100.553 223.253 100.243 222.848C99.934 222.432 99.7634 221.957 99.7314 221.424H101.235C101.278 221.861 101.481 222.219 101.843 222.496C102.217 222.773 102.702 222.912 103.299 222.912C103.854 222.912 104.291 222.789 104.611 222.544C104.931 222.299 105.091 221.989 105.091 221.616C105.091 221.232 104.921 220.949 104.579 220.768C104.238 220.576 103.71 220.389 102.995 220.208C102.345 220.037 101.811 219.867 101.395 219.696C100.99 219.515 100.638 219.253 100.339 218.912C100.051 218.56 99.9074 218.101 99.9074 217.536C99.9074 217.088 100.041 216.677 100.307 216.304C100.574 215.931 100.953 215.637 101.443 215.424C101.934 215.2 102.494 215.088 103.123 215.088C104.094 215.088 104.878 215.333 105.475 215.824C106.073 216.315 106.393 216.987 106.435 217.84H104.979C104.947 217.381 104.761 217.013 104.419 216.736C104.089 216.459 103.641 216.32 103.075 216.32C102.553 216.32 102.137 216.432 101.827 216.656C101.518 216.88 101.363 217.173 101.363 217.536C101.363 217.824 101.454 218.064 101.635 218.256C101.827 218.437 102.062 218.587 102.339 218.704C102.627 218.811 103.022 218.933 103.523 219.072C104.153 219.243 104.665 219.413 105.059 219.584C105.454 219.744 105.79 219.989 106.067 220.32C106.355 220.651 106.505 221.083 106.515 221.616C106.515 222.096 106.382 222.528 106.115 222.912C105.849 223.296 105.47 223.6 104.979 223.824C104.499 224.037 103.945 224.144 103.315 224.144ZM110.387 216.432V221.6C110.387 222.027 110.477 222.331 110.659 222.512C110.84 222.683 111.155 222.768 111.603 222.768H112.675V224H111.363C110.552 224 109.944 223.813 109.539 223.44C109.133 223.067 108.931 222.453 108.931 221.6V216.432H107.795V215.232H108.931V213.024H110.387V215.232H112.675V216.432H110.387ZM122.479 219.28C122.479 219.557 122.463 219.851 122.431 220.16H115.423C115.476 221.024 115.77 221.701 116.303 222.192C116.847 222.672 117.503 222.912 118.271 222.912C118.9 222.912 119.423 222.768 119.839 222.48C120.266 222.181 120.564 221.787 120.735 221.296H122.303C122.068 222.139 121.599 222.827 120.895 223.36C120.191 223.883 119.316 224.144 118.271 224.144C117.439 224.144 116.692 223.957 116.031 223.584C115.38 223.211 114.868 222.683 114.495 222C114.122 221.307 113.935 220.507 113.935 219.6C113.935 218.693 114.116 217.899 114.479 217.216C114.842 216.533 115.348 216.011 115.999 215.648C116.66 215.275 117.418 215.088 118.271 215.088C119.103 215.088 119.839 215.269 120.479 215.632C121.119 215.995 121.61 216.496 121.951 217.136C122.303 217.765 122.479 218.48 122.479 219.28ZM120.975 218.976C120.975 218.421 120.852 217.947 120.607 217.552C120.362 217.147 120.026 216.843 119.599 216.64C119.183 216.427 118.719 216.32 118.207 216.32C117.471 216.32 116.842 216.555 116.319 217.024C115.807 217.493 115.514 218.144 115.439 218.976H120.975ZM123.897 219.584C123.897 218.688 124.078 217.904 124.441 217.232C124.803 216.549 125.299 216.021 125.929 215.648C126.569 215.275 127.283 215.088 128.073 215.088C128.755 215.088 129.39 215.248 129.977 215.568C130.563 215.877 131.011 216.288 131.321 216.8V212.16H132.793V224H131.321V222.352C131.033 222.875 130.606 223.307 130.041 223.648C129.475 223.979 128.814 224.144 128.057 224.144C127.278 224.144 126.569 223.952 125.929 223.568C125.299 223.184 124.803 222.645 124.441 221.952C124.078 221.259 123.897 220.469 123.897 219.584ZM131.321 219.6C131.321 218.939 131.187 218.363 130.921 217.872C130.654 217.381 130.291 217.008 129.833 216.752C129.385 216.485 128.889 216.352 128.345 216.352C127.801 216.352 127.305 216.48 126.857 216.736C126.409 216.992 126.051 217.365 125.785 217.856C125.518 218.347 125.385 218.923 125.385 219.584C125.385 220.256 125.518 220.843 125.785 221.344C126.051 221.835 126.409 222.213 126.857 222.48C127.305 222.736 127.801 222.864 128.345 222.864C128.889 222.864 129.385 222.736 129.833 222.48C130.291 222.213 130.654 221.835 130.921 221.344C131.187 220.843 131.321 220.261 131.321 219.6ZM143.423 224.144C142.602 224.144 141.855 223.957 141.183 223.584C140.522 223.211 139.999 222.683 139.615 222C139.242 221.307 139.055 220.507 139.055 219.6C139.055 218.704 139.247 217.915 139.631 217.232C140.026 216.539 140.559 216.011 141.231 215.648C141.903 215.275 142.655 215.088 143.487 215.088C144.319 215.088 145.071 215.275 145.743 215.648C146.415 216.011 146.943 216.533 147.327 217.216C147.722 217.899 147.919 218.693 147.919 219.6C147.919 220.507 147.716 221.307 147.311 222C146.916 222.683 146.378 223.211 145.695 223.584C145.012 223.957 144.255 224.144 143.423 224.144ZM143.423 222.864C143.946 222.864 144.436 222.741 144.895 222.496C145.354 222.251 145.722 221.883 145.999 221.392C146.287 220.901 146.431 220.304 146.431 219.6C146.431 218.896 146.292 218.299 146.015 217.808C145.738 217.317 145.375 216.955 144.927 216.72C144.479 216.475 143.994 216.352 143.471 216.352C142.938 216.352 142.447 216.475 141.999 216.72C141.562 216.955 141.21 217.317 140.943 217.808C140.676 218.299 140.543 218.896 140.543 219.6C140.543 220.315 140.671 220.917 140.927 221.408C141.194 221.899 141.546 222.267 141.983 222.512C142.42 222.747 142.9 222.864 143.423 222.864ZM154.145 215.072C155.212 215.072 156.076 215.397 156.737 216.048C157.399 216.688 157.729 217.616 157.729 218.832V224H156.289V219.04C156.289 218.165 156.071 217.499 155.633 217.04C155.196 216.571 154.599 216.336 153.841 216.336C153.073 216.336 152.46 216.576 152.001 217.056C151.553 217.536 151.329 218.235 151.329 219.152V224H149.873V215.232H151.329V216.48C151.617 216.032 152.007 215.685 152.497 215.44C152.999 215.195 153.548 215.072 154.145 215.072Z" fill="#A6A6A6"/>
<path d="M70.368 239.696H64.752V243.344C64.9973 243.003 65.36 242.725 65.84 242.512C66.32 242.288 66.8373 242.176 67.392 242.176C68.2773 242.176 68.9973 242.363 69.552 242.736C70.1067 243.099 70.5013 243.573 70.736 244.16C70.9813 244.736 71.104 245.349 71.104 246C71.104 246.768 70.96 247.456 70.672 248.064C70.384 248.672 69.9413 249.152 69.344 249.504C68.7573 249.856 68.0267 250.032 67.152 250.032C66.032 250.032 65.1253 249.744 64.432 249.168C63.7387 248.592 63.3173 247.824 63.168 246.864H64.592C64.7307 247.472 65.024 247.947 65.472 248.288C65.92 248.629 66.4853 248.8 67.168 248.8C68.0107 248.8 68.6453 248.549 69.072 248.048C69.4987 247.536 69.712 246.864 69.712 246.032C69.712 245.2 69.4987 244.56 69.072 244.112C68.6453 243.653 68.016 243.424 67.184 243.424C66.6187 243.424 66.1227 243.563 65.696 243.84C65.28 244.107 64.976 244.475 64.784 244.944H63.408V238.416H70.368V239.696ZM73.0789 244.096C73.0789 242.261 73.3775 240.832 73.9749 239.808C74.5722 238.773 75.6175 238.256 77.1109 238.256C78.5935 238.256 79.6335 238.773 80.2309 239.808C80.8282 240.832 81.1269 242.261 81.1269 244.096C81.1269 245.963 80.8282 247.413 80.2309 248.448C79.6335 249.483 78.5935 250 77.1109 250C75.6175 250 74.5722 249.483 73.9749 248.448C73.3775 247.413 73.0789 245.963 73.0789 244.096ZM79.6869 244.096C79.6869 243.168 79.6229 242.384 79.4949 241.744C79.3775 241.093 79.1269 240.571 78.7429 240.176C78.3695 239.781 77.8255 239.584 77.1109 239.584C76.3855 239.584 75.8309 239.781 75.4469 240.176C75.0735 240.571 74.8229 241.093 74.6949 241.744C74.5775 242.384 74.5189 243.168 74.5189 244.096C74.5189 245.056 74.5775 245.861 74.6949 246.512C74.8229 247.163 75.0735 247.685 75.4469 248.08C75.8309 248.475 76.3855 248.672 77.1109 248.672C77.8255 248.672 78.3695 248.475 78.7429 248.08C79.1269 247.685 79.3775 247.163 79.4949 246.512C79.6229 245.861 79.6869 245.056 79.6869 244.096ZM83.1657 244.096C83.1657 242.261 83.4644 240.832 84.0618 239.808C84.6591 238.773 85.7044 238.256 87.1978 238.256C88.6804 238.256 89.7204 238.773 90.3177 239.808C90.9151 240.832 91.2137 242.261 91.2137 244.096C91.2137 245.963 90.9151 247.413 90.3177 248.448C89.7204 249.483 88.6804 250 87.1978 250C85.7044 250 84.6591 249.483 84.0618 248.448C83.4644 247.413 83.1657 245.963 83.1657 244.096ZM89.7738 244.096C89.7738 243.168 89.7098 242.384 89.5818 241.744C89.4644 241.093 89.2138 240.571 88.8298 240.176C88.4564 239.781 87.9124 239.584 87.1978 239.584C86.4724 239.584 85.9178 239.781 85.5338 240.176C85.1604 240.571 84.9098 241.093 84.7817 241.744C84.6644 242.384 84.6058 243.168 84.6058 244.096C84.6058 245.056 84.6644 245.861 84.7817 246.512C84.9098 247.163 85.1604 247.685 85.5338 248.08C85.9178 248.475 86.4724 248.672 87.1978 248.672C87.9124 248.672 88.4564 248.475 88.8298 248.08C89.2138 247.685 89.4644 247.163 89.5818 246.512C89.7098 245.861 89.7738 245.056 89.7738 244.096ZM101.813 244.768H98.4046V248.224H97.0446V244.768H93.6526V243.536H97.0446V240.064H98.4046V243.536H101.813V244.768ZM114.632 250L111.976 245.44H110.216V250H108.76V238.848H112.36C113.203 238.848 113.912 238.992 114.488 239.28C115.075 239.568 115.512 239.957 115.8 240.448C116.088 240.939 116.232 241.499 116.232 242.128C116.232 242.896 116.008 243.573 115.56 244.16C115.123 244.747 114.461 245.136 113.576 245.328L116.376 250H114.632ZM110.216 244.272H112.36C113.149 244.272 113.741 244.08 114.136 243.696C114.531 243.301 114.728 242.779 114.728 242.128C114.728 241.467 114.531 240.955 114.136 240.592C113.752 240.229 113.16 240.048 112.36 240.048H110.216V244.272ZM126.535 245.28C126.535 245.557 126.519 245.851 126.487 246.16H119.479C119.532 247.024 119.825 247.701 120.359 248.192C120.903 248.672 121.559 248.912 122.327 248.912C122.956 248.912 123.479 248.768 123.895 248.48C124.321 248.181 124.62 247.787 124.791 247.296H126.359C126.124 248.139 125.655 248.827 124.951 249.36C124.247 249.883 123.372 250.144 122.327 250.144C121.495 250.144 120.748 249.957 120.087 249.584C119.436 249.211 118.924 248.683 118.551 248C118.177 247.307 117.991 246.507 117.991 245.6C117.991 244.693 118.172 243.899 118.535 243.216C118.897 242.533 119.404 242.011 120.055 241.648C120.716 241.275 121.473 241.088 122.327 241.088C123.159 241.088 123.895 241.269 124.535 241.632C125.175 241.995 125.665 242.496 126.007 243.136C126.359 243.765 126.535 244.48 126.535 245.28ZM125.031 244.976C125.031 244.421 124.908 243.947 124.663 243.552C124.417 243.147 124.081 242.843 123.655 242.64C123.239 242.427 122.775 242.32 122.263 242.32C121.527 242.32 120.897 242.555 120.375 243.024C119.863 243.493 119.569 244.144 119.495 244.976H125.031ZM131.76 248.656L134.48 241.232H136.032L132.592 250H130.896L127.456 241.232H129.024L131.76 248.656ZM138.257 239.808C137.98 239.808 137.745 239.712 137.553 239.52C137.361 239.328 137.265 239.093 137.265 238.816C137.265 238.539 137.361 238.304 137.553 238.112C137.745 237.92 137.98 237.824 138.257 237.824C138.524 237.824 138.748 237.92 138.929 238.112C139.121 238.304 139.217 238.539 139.217 238.816C139.217 239.093 139.121 239.328 138.929 239.52C138.748 239.712 138.524 239.808 138.257 239.808ZM138.961 241.232V250H137.505V241.232H138.961ZM149.483 245.28C149.483 245.557 149.467 245.851 149.435 246.16H142.427C142.48 247.024 142.773 247.701 143.307 248.192C143.851 248.672 144.507 248.912 145.275 248.912C145.904 248.912 146.427 248.768 146.843 248.48C147.269 248.181 147.568 247.787 147.739 247.296H149.307C149.072 248.139 148.603 248.827 147.899 249.36C147.195 249.883 146.32 250.144 145.275 250.144C144.443 250.144 143.696 249.957 143.035 249.584C142.384 249.211 141.872 248.683 141.499 248C141.125 247.307 140.939 246.507 140.939 245.6C140.939 244.693 141.12 243.899 141.483 243.216C141.845 242.533 142.352 242.011 143.003 241.648C143.664 241.275 144.421 241.088 145.275 241.088C146.107 241.088 146.843 241.269 147.483 241.632C148.123 241.995 148.613 242.496 148.955 243.136C149.307 243.765 149.483 244.48 149.483 245.28ZM147.979 244.976C147.979 244.421 147.856 243.947 147.611 243.552C147.365 243.147 147.029 242.843 146.603 242.64C146.187 242.427 145.723 242.32 145.211 242.32C144.475 242.32 143.845 242.555 143.323 243.024C142.811 243.493 142.517 244.144 142.443 244.976H147.979ZM163.125 241.232L160.389 250H158.885L156.773 243.04L154.661 250H153.157L150.405 241.232H151.893L153.909 248.592L156.085 241.232H157.573L159.701 248.608L161.685 241.232H163.125ZM167.714 250.144C167.042 250.144 166.439 250.032 165.906 249.808C165.372 249.573 164.951 249.253 164.642 248.848C164.332 248.432 164.162 247.957 164.13 247.424H165.634C165.676 247.861 165.879 248.219 166.242 248.496C166.615 248.773 167.1 248.912 167.698 248.912C168.252 248.912 168.69 248.789 169.01 248.544C169.33 248.299 169.49 247.989 169.49 247.616C169.49 247.232 169.319 246.949 168.978 246.768C168.636 246.576 168.108 246.389 167.394 246.208C166.743 246.037 166.21 245.867 165.794 245.696C165.388 245.515 165.036 245.253 164.738 244.912C164.45 244.56 164.306 244.101 164.306 243.536C164.306 243.088 164.439 242.677 164.706 242.304C164.972 241.931 165.351 241.637 165.842 241.424C166.332 241.2 166.892 241.088 167.522 241.088C168.492 241.088 169.276 241.333 169.874 241.824C170.471 242.315 170.791 242.987 170.834 243.84H169.378C169.346 243.381 169.159 243.013 168.818 242.736C168.487 242.459 168.039 242.32 167.474 242.32C166.951 242.32 166.535 242.432 166.226 242.656C165.916 242.88 165.762 243.173 165.762 243.536C165.762 243.824 165.852 244.064 166.034 244.256C166.226 244.437 166.46 244.587 166.738 244.704C167.026 244.811 167.42 244.933 167.922 245.072C168.551 245.243 169.063 245.413 169.458 245.584C169.852 245.744 170.188 245.989 170.466 246.32C170.754 246.651 170.903 247.083 170.914 247.616C170.914 248.096 170.78 248.528 170.514 248.912C170.247 249.296 169.868 249.6 169.378 249.824C168.898 250.037 168.343 250.144 167.714 250.144Z" fill="#054457"/>
<g clip-path="url(#clip0_41_617)">
<path d="M77.1699 187.75C77.05 187.75 76.9317 187.722 76.8249 187.667L72.9999 185.665L69.1749 187.667C69.0507 187.733 68.9107 187.762 68.7708 187.752C68.6308 187.741 68.4966 187.692 68.3833 187.609C68.27 187.526 68.1822 187.413 68.1299 187.283C68.0776 187.153 68.0629 187.011 68.0874 186.872L68.8374 182.65L65.7474 179.65C65.651 179.554 65.5826 179.433 65.5496 179.301C65.5166 179.169 65.5202 179.03 65.5599 178.9C65.6034 178.767 65.6834 178.648 65.7908 178.558C65.8981 178.468 66.0286 178.41 66.1674 178.39L70.4424 177.767L72.3249 173.92C72.3864 173.793 72.4822 173.686 72.6016 173.611C72.721 173.537 72.8591 173.497 72.9999 173.497C73.1408 173.497 73.2789 173.537 73.3983 173.611C73.5176 173.686 73.6135 173.793 73.6749 173.92L75.5799 177.76L79.8549 178.382C79.9938 178.402 80.1243 178.46 80.2316 178.551C80.339 178.641 80.419 178.759 80.4624 178.892C80.5022 179.023 80.5058 179.161 80.4728 179.293C80.4397 179.426 80.3714 179.546 80.2749 179.642L77.1849 182.642L77.9349 186.865C77.9617 187.006 77.9477 187.151 77.8945 187.284C77.8414 187.417 77.7513 187.532 77.6349 187.615C77.4991 187.71 77.3356 187.758 77.1699 187.75Z" fill="#69B99D"/>
</g>
<g clip-path="url(#clip1_41_617)">
<path d="M99.1699 187.75C99.05 187.75 98.9317 187.722 98.8249 187.667L94.9999 185.665L91.1749 187.667C91.0507 187.733 90.9107 187.762 90.7708 187.752C90.6308 187.741 90.4966 187.692 90.3833 187.609C90.27 187.526 90.1822 187.413 90.1299 187.283C90.0776 187.153 90.0629 187.011 90.0874 186.872L90.8374 182.65L87.7474 179.65C87.651 179.554 87.5826 179.433 87.5496 179.301C87.5166 179.169 87.5202 179.03 87.5599 178.9C87.6034 178.767 87.6834 178.648 87.7908 178.558C87.8981 178.468 88.0286 178.41 88.1674 178.39L92.4424 177.767L94.3249 173.92C94.3864 173.793 94.4822 173.686 94.6016 173.611C94.721 173.537 94.8591 173.497 94.9999 173.497C95.1408 173.497 95.2789 173.537 95.3983 173.611C95.5176 173.686 95.6135 173.793 95.6749 173.92L97.5799 177.76L101.855 178.382C101.994 178.402 102.124 178.46 102.232 178.551C102.339 178.641 102.419 178.759 102.462 178.892C102.502 179.023 102.506 179.161 102.473 179.293C102.44 179.426 102.371 179.546 102.275 179.642L99.1849 182.642L99.9349 186.865C99.9617 187.006 99.9477 187.151 99.8945 187.284C99.8414 187.417 99.7513 187.532 99.6349 187.615C99.4991 187.71 99.3356 187.758 99.1699 187.75Z" fill="#69B99D"/>
</g>
<g clip-path="url(#clip2_41_617)">
<path d="M121.17 187.75C121.05 187.75 120.932 187.722 120.825 187.667L117 185.665L113.175 187.667C113.051 187.733 112.911 187.762 112.771 187.752C112.631 187.741 112.497 187.692 112.383 187.609C112.27 187.526 112.182 187.413 112.13 187.283C112.078 187.153 112.063 187.011 112.087 186.872L112.837 182.65L109.747 179.65C109.651 179.554 109.583 179.433 109.55 179.301C109.517 179.169 109.52 179.03 109.56 178.9C109.603 178.767 109.683 178.648 109.791 178.558C109.898 178.468 110.029 178.41 110.167 178.39L114.442 177.767L116.325 173.92C116.386 173.793 116.482 173.686 116.602 173.611C116.721 173.537 116.859 173.497 117 173.497C117.141 173.497 117.279 173.537 117.398 173.611C117.518 173.686 117.614 173.793 117.675 173.92L119.58 177.76L123.855 178.382C123.994 178.402 124.124 178.46 124.232 178.551C124.339 178.641 124.419 178.759 124.462 178.892C124.502 179.023 124.506 179.161 124.473 179.293C124.44 179.426 124.371 179.546 124.275 179.642L121.185 182.642L121.935 186.865C121.962 187.006 121.948 187.151 121.895 187.284C121.841 187.417 121.751 187.532 121.635 187.615C121.499 187.71 121.336 187.758 121.17 187.75Z" fill="#69B99D"/>
</g>
<g clip-path="url(#clip3_41_617)">
<path d="M143.17 187.75C143.05 187.75 142.932 187.722 142.825 187.667L139 185.665L135.175 187.667C135.051 187.733 134.911 187.762 134.771 187.752C134.631 187.741 134.497 187.692 134.383 187.609C134.27 187.526 134.182 187.413 134.13 187.283C134.078 187.153 134.063 187.011 134.087 186.872L134.837 182.65L131.747 179.65C131.651 179.554 131.583 179.433 131.55 179.301C131.517 179.169 131.52 179.03 131.56 178.9C131.603 178.767 131.683 178.648 131.791 178.558C131.898 178.468 132.029 178.41 132.167 178.39L136.442 177.767L138.325 173.92C138.386 173.793 138.482 173.686 138.602 173.611C138.721 173.537 138.859 173.497 139 173.497C139.141 173.497 139.279 173.537 139.398 173.611C139.518 173.686 139.614 173.793 139.675 173.92L141.58 177.76L145.855 178.382C145.994 178.402 146.124 178.46 146.232 178.551C146.339 178.641 146.419 178.759 146.462 178.892C146.502 179.023 146.506 179.161 146.473 179.293C146.44 179.426 146.371 179.546 146.275 179.642L143.185 182.642L143.935 186.865C143.962 187.006 143.948 187.151 143.895 187.284C143.841 187.417 143.751 187.532 143.635 187.615C143.499 187.71 143.336 187.758 143.17 187.75Z" fill="#69B99D"/>
</g>
<g clip-path="url(#clip4_41_617)">
<path d="M165.17 187.75C165.05 187.75 164.932 187.722 164.825 187.667L161 185.665L157.175 187.667C157.051 187.733 156.911 187.762 156.771 187.752C156.631 187.741 156.497 187.692 156.383 187.609C156.27 187.526 156.182 187.413 156.13 187.283C156.078 187.153 156.063 187.011 156.087 186.872L156.837 182.65L153.747 179.65C153.651 179.554 153.583 179.433 153.55 179.301C153.517 179.169 153.52 179.03 153.56 178.9C153.603 178.767 153.683 178.648 153.791 178.558C153.898 178.468 154.029 178.41 154.167 178.39L158.442 177.767L160.325 173.92C160.386 173.793 160.482 173.686 160.602 173.611C160.721 173.537 160.859 173.497 161 173.497C161.141 173.497 161.279 173.537 161.398 173.611C161.518 173.686 161.614 173.793 161.675 173.92L163.58 177.76L167.855 178.382C167.994 178.402 168.124 178.46 168.232 178.551C168.339 178.641 168.419 178.759 168.462 178.892C168.502 179.023 168.506 179.161 168.473 179.293C168.44 179.426 168.371 179.546 168.275 179.642L165.185 182.642L165.935 186.865C165.962 187.006 165.948 187.151 165.895 187.284C165.841 187.417 165.751 187.532 165.635 187.615C165.499 187.71 165.336 187.758 165.17 187.75Z" fill="#69B99D"/>
</g>
<defs>
<filter id="filter0_d_41_617" x="0" y="22" width="304" height="366" filterUnits="userSpaceOnUse" color-interpolation-filters="sRGB">
<feFlood flood-opacity="0" result="BackgroundImageFix"/>
<feColorMatrix in="SourceAlpha" type="matrix" values="0 0 0 0 0 0 0 0 0 0 0 0 0 0 0 0 0 0 127 0" result="hardAlpha"/>
<feOffset dx="35" dy="35"/>
<feGaussianBlur stdDeviation="32.5"/>
<feColorMatrix type="matrix" values="0 0 0 0 0.570833 0 0 0 0 0.413854 0 0 0 0 0.469154 0 0 0 0.16 0"/>
<feBlend mode="normal" in2="BackgroundImageFix" result="effect1_dropShadow_41_617"/>
<feBlend mode="normal" in="SourceGraphic" in2="effect1_dropShadow_41_617" result="shape"/>
</filter>
<filter id="filter1_d_41_617" x="63" y="-2" width="108" height="108" filterUnits="userSpaceOnUse" color-interpolation-filters="sRGB">
<feFlood flood-opacity="0" result="BackgroundImageFix"/>
<feColorMatrix in="SourceAlpha" type="matrix" values="0 0 0 0 0 0 0 0 0 0 0 0 0 0 0 0 0 0 127 0" result="hardAlpha"/>
<feOffset/>
<feGaussianBlur stdDeviation="19"/>
<feColorMatrix type="matrix" values="0 0 0 0 0.411765 0 0 0 0 0.72549 0 0 0 0 0.615686 0 0 0 0.32 0"/>
<feBlend mode="normal" in2="BackgroundImageFix" result="effect1_dropShadow_41_617"/>
<feBlend mode="normal" in="SourceGraphic" in2="effect1_dropShadow_41_617" result="shape"/>
</filter>
<clipPath id="clip0_41_617">
<rect width="18" height="18" fill="white" transform="translate(64 172)"/>
</clipPath>
<clipPath id="clip1_41_617">
<rect width="18" height="18" fill="white" transform="translate(86 172)"/>
</clipPath>
<clipPath id="clip2_41_617">
<rect width="18" height="18" fill="white" transform="translate(108 172)"/>
</clipPath>
<clipPath id="clip3_41_617">
<rect width="18" height="18" fill="white" transform="translate(130 172)"/>
</clipPath>
<clipPath id="clip4_41_617">
<rect width="18" height="18" fill="white" transform="translate(152 172)"/>
</clipPath>
</defs>
</svg>
